<?xml version="1.0" encoding="UTF-8"?>
<svg width="167px" height="167px" viewBox="0 0 167 167" version="1.1" xmlns="http://www.w3.org/2000/svg">
    <circle fill="#1DB954" cx="83.5" cy="83.5" r="83.5"/>
    <path d="M120.5,76.5 C97.5,63.5 63.5,62.5 45.5,67.5 C42.5,68.5 39.5,66.5 38.5,63.5 C37.5,60.5 39.5,57.5 42.5,56.5 C63.5,51.5 100.5,52.5 126.5,67.5 C129.5,69.5 130.5,73.5 128.5,76.5 C126.5,78.5 122.5,78.5 120.5,76.5 Z" fill="#191414"/>
    <path d="M116.5,93.5 C97.5,82.5 70.5,80.5 48.5,85.5 C45.5,86.5 42.5,84.5 41.5,81.5 C40.5,78.5 42.5,75.5 45.5,74.5 C70.5,69.5 100.5,71.5 122.5,84.5 C125.5,86.5 126.5,90.5 124.5,93.5 C122.5,95.5 118.5,95.5 116.5,93.5 Z" fill="#191414"/>
    <path d="M113.5,110.5 C97.5,101.5 77.5,99.5 51.5,103.5 C48.5,104.5 45.5,102.5 44.5,99.5 C43.5,96.5 45.5,93.5 48.5,92.5 C77.5,88.5 100.5,90.5 118.5,101.5 C121.5,103.5 122.5,107.5 120.5,110.5 C118.5,112.5 115.5,112.5 113.5,110.5 Z" fill="#191414"/>
</svg> 